{"title":"La Strada (Federico Fellini, 1954)","uid":9586226,"size":1564166994,"categoryP":"video","categoryS":"movies","magnet":"?xt=urn:btih:15b71899b68343e34414dd1d8caa2acb6bf825bc&amp;dn=La+Strada+%28Federico+Fellini%2C+1954%29&amp;tr=udp%3A%2F%2Ftracker.openbittorrent.com%3A80&amp;tr=udp%3A%2F%2Fopen.demonii.com%3A1337&amp;tr=udp%3A%2F%2Ftracker.coppersurfer.tk%3A6969&amp;tr=udp%3A%2F%2Fexodus.desync.com%3A6969","seeders":42,"leechers":8,"uploader":"moonflux","files":1,"time":1391826298,"description":"Sad story of a waif, Gelsomina, who is sold by her mother to Zampano for 10,000 lire and a few kilos of food. Zampano is a traveling showman who exhibits feats of strength by breaking a chain wrapped around his chest. He performs in village squares and then passes the hat for whatever the normally small crowd is prepared to give. He teaches Gelsomina a drum roll as part of his introduction. He doesn't treat her well and when she tries to run away, he beats her. They eventually join a small traveling circus where they meet Il Matto but a disagreement leads to tragedy.\n\nOur thanks to applebananas @ PTP \n\nGeneral\nUnique ID                                : 227873938300396797999211730959573990943 (0xAB6EEC93E7210EB69BD3B3D554B83E1F)\nComplete name                            : La.Strada.1954.Criterion.DVDRip.x264.mkv\nFormat                                   : Matroska\nFormat version                           : Version 1\nFile size                                : 1.46 GiB\nDuration                                 : 1h 48mn\nOverall bit rate                         : 1 920 Kbps\nEncoded date                             : UTC 2008-07-13 15:20:12\nWriting application                      : mkvmerge v2.2.0 ('Turn It On Again') built on Mar  4 2008 12:58:26\nWriting library                          : libebml v0.7.7 + libmatroska v0.8.1\n\nVideo\nID                                       : 1\nFormat                                   : AVC\nFormat/Info                              : Advanced Video Codec\nFormat profile                           : &lt;a class=&quot;__cf_email__&quot; href=&quot;/cdn-cgi/l/email-protection&quot; data-cfemail=&quot;c78faea0af878bf3e9f6&quot;&gt;[email&amp;#160;protected]&lt;/a&gt;&lt;script cf-hash='f9e31' type=&quot;text/javascript&quot;&gt;\n/* &lt;![CDATA[ */!function(){try{var t=&quot;currentScript&quot;in document?document.currentScript:function(){for(var t=document.getElementsByTagName(&quot;script&quot;),e=t.length;e--;)if(t[e].getAttribute(&quot;cf-hash&quot;))return t[e]}();if(t&amp;&amp;t.previousSibling){var e,r,n,i,c=t.previousSibling,a=c.getAttribute(&quot;data-cfemail&quot;);if(a){for(e=&quot;&quot;,r=parseInt(a.substr(0,2),16),n=2;a.length-n;n+=2)i=parseInt(a.substr(n,2),16)^r,e+=String.fromCharCode(i);e=document.createTextNode(e),c.parentNode.replaceChild(e,c)}}}catch(u){}}();/* ]]&gt; */&lt;/script&gt;\nFormat settings, CABAC                   : Yes\nFormat settings, ReFrames                : 16 frames\nCodec ID                                 : V_MPEG4/ISO/AVC\nDuration                                 : 1h 48mn\nBit rate                                 : 1 725 Kbps\nWidth                                    : 704 pixels\nHeight                                   : 480 pixels\nDisplay aspect ratio                     : 4:3\nOriginal display aspect ratio            : 3:2\nFrame rate mode                          : Constant\nFrame rate                               : 23.976 fps\nStandard                                 : NTSC\nColor space                              : YUV\nChroma subsampling                       : 4:2:0\nBit depth                                : 8 bits\nScan type                                : Progressive\nBits/(Pixel*Frame)                       : 0.213\nStream size                              : 1.28 GiB (88%)\nTitle                                    : La Strada (1954)\nWriting library                          : x264 core 60 r901M 58d7d06\nEncoding settings                        : cabac=1 / ref=16 / deblock=1:-1:-1 / analyse=0x3:0x113 / me=tesa / subme=7 / rdcmp=psy / brdo=1 / mixed_ref=1 / me_range=20 / chroma_me=1 / trellis=2 / 8x8dct=1 / cqm=0 / deadzone=21,11 / chroma_qp_offset=0 / threads=3 / nr=0 / decimate=0 / mbaff=0 / bframes=3 / b_pyramid=1 / b_adapt=1 / b_bias=0 / direct=3 / wpredb=1 / bime=1 / keyint=240 / keyint_min=24 / scenecut=40(pre) / rc=2pass / bitrate=1725 / ratetol=1.0 / rceq='blurCplx^(1-qComp)' / qcomp=1.00 / qpmin=10 / qpmax=51 / qpstep=4 / cplxblur=20.0 / qblur=0.5 / ip_ratio=1.40 / pb_ratio=1.30 / aq=2:1.10\nDefault                                  : Yes\nForced                                   : No\n\nAudio\nID                                       : 2\nFormat                                   : AC-3\nFormat/Info                              : Audio Coding 3\nMode extension                           : CM (complete main)\nFormat settings, Endianness              : Big\nCodec ID                                 : A_AC3\nDuration                                 : 1h 48mn\nBit rate mode                            : Constant\nBit rate                                 : 192 Kbps\nChannel(s)                               : 1 channel\nChannel positions                        : Front: C\nSampling rate                            : 48.0 KHz\nBit depth                                : 16 bits\nCompression mode                         : Lossy\nStream size                              : 149 MiB (10%)\nTitle                                    : Italian Audio (AC3, 1 channel)\nLanguage                                 : Italian\nDefault                                  : Yes\nForced                                   : No\n\nText\nID                                       : 3\nFormat                                   : UTF-8\nCodec ID                                 : S_TEXT/UTF8\nCodec ID/Info                            : UTF-8 Plain Text\nTitle                                    : English Subs (SRT)\nLanguage                                 : English\nDefault                                  : Yes\nForced                                   : No","torrent":{"xt":"urn:btih:15b71899b68343e34414dd1d8caa2acb6bf825bc","amp;dn":"La+Strada+%28Federico+Fellini%2C+1954%29","amp;tr":["udp%3A%2F%2Ftracker.openbittorrent.com%3A80","udp%3A%2F%2Fopen.demonii.com%3A1337","udp%3A%2F%2Ftracker.coppersurfer.tk%3A6969","udp%3A%2F%2Fexodus.desync.com%3A6969"],"infoHash":"15b71899b68343e34414dd1d8caa2acb6bf825bc","infoHashBuffer":{"type":"Buffer","data":[21,183,24,153,182,131,67,227,68,20,221,29,140,170,42,203,107,248,37,188]},"announce":[],"urlList":[]}}